<svg width="357" height="323" viewBox="0 0 357 323" fill="none" xmlns="http://www.w3.org/2000/svg">
<g clip-path="url(#clip0_667_408)">
<path d="M156.031 267.137H7.07342C5.19808 267.135 3.40016 266.389 2.07409 265.063C0.748024 263.737 0.00211056 261.939 0 260.063V57.8381C0.00211057 55.9627 0.748023 54.1647 2.07409 52.8386C3.40016 51.5125 5.19808 50.7665 7.07342 50.7644H156.031C157.907 50.7665 159.705 51.5125 161.031 52.8386C162.357 54.1647 163.103 55.9627 163.105 57.8381V260.063C163.103 261.939 162.357 263.737 161.031 265.063C159.705 266.389 157.907 267.135 156.031 267.137Z" fill="white"/>
<path d="M74.8378 103.394C74.8379 109.235 72.9903 114.925 69.5596 119.652C66.1289 124.379 61.2909 127.899 55.7381 129.708C55.572 129.761 55.4061 129.814 55.2375 129.864C54.5182 130.086 53.7889 130.274 53.0469 130.435C51.7041 130.727 50.3412 130.916 48.9699 131.001C48.3739 131.041 47.7745 131.062 47.1716 131.062C44.0569 131.065 40.9641 130.541 38.0241 129.512C37.9386 129.482 37.8532 129.452 37.7701 129.422C33.0067 127.701 28.8069 124.706 25.6282 120.763C22.4496 116.82 20.4141 112.08 19.7436 107.06C19.0731 102.04 19.7932 96.9322 21.8256 92.2931C23.858 87.654 27.1246 83.6618 31.2695 80.7514C35.4144 77.841 40.2785 76.1241 45.3319 75.7879C50.3853 75.4516 55.434 76.5088 59.928 78.8444C64.4219 81.1799 68.1887 84.7042 70.8177 89.033C73.4468 93.3619 74.8373 98.3294 74.8378 103.394Z" fill="white"/>
<path d="M46.5075 121.725C53.9417 121.725 59.9682 115.698 59.9682 108.264C59.9682 100.829 53.9417 94.8025 46.5075 94.8025C39.0734 94.8025 33.0469 100.829 33.0469 108.264C33.0469 115.698 39.0734 121.725 46.5075 121.725Z" fill="#05904D"/>
<path d="M47.2957 115.517L47.3097 115.014C46.3739 114.988 45.5489 114.929 44.929 114.476C44.7532 114.34 44.6087 114.168 44.5054 113.972C44.402 113.775 44.3422 113.559 44.33 113.337C44.3191 113.201 44.3396 113.065 44.3899 112.939C44.4402 112.813 44.5189 112.7 44.62 112.609C44.8542 112.467 45.1224 112.391 45.3963 112.388C45.6701 112.386 45.9396 112.457 46.1763 112.595L46.5925 112.786L45.7944 106.953L45.296 107.021L45.9749 111.983C45.697 111.88 45.3978 111.848 45.1044 111.89C44.811 111.932 44.5328 112.047 44.2953 112.225C44.1355 112.364 44.0101 112.539 43.9289 112.735C43.8478 112.931 43.813 113.143 43.8274 113.355C43.8421 113.653 43.9217 113.944 44.0608 114.208C44.1998 114.471 44.3949 114.702 44.6323 114.882C45.4288 115.464 46.464 115.493 47.2957 115.517Z" fill="#2F2E41"/>
<path d="M42.8302 107.449H40.1211V107.952H42.8302V107.449Z" fill="#2F2E41"/>
<path d="M51.381 107.449H48.6719V107.952H51.381V107.449Z" fill="#2F2E41"/>
<path d="M50.3325 127.082C50.3682 126.917 50.3867 126.749 50.3878 126.579C50.3868 125.946 50.1348 125.339 49.6869 124.891C49.239 124.443 48.6319 124.191 47.9985 124.19H44.4773C43.8438 124.191 43.2364 124.442 42.7884 124.89C42.3405 125.338 42.0886 125.946 42.088 126.579C42.0879 126.749 42.1064 126.919 42.1432 127.085C40.814 127.504 39.5576 128.126 38.4185 128.929C38.197 129.082 37.9783 129.248 37.7695 129.422C37.8526 129.452 37.938 129.482 38.0235 129.512C40.9635 130.541 44.0563 131.065 47.171 131.062C47.7746 131.062 48.374 131.041 48.9693 131.001C50.3406 130.916 51.7035 130.727 53.0463 130.435C53.7883 130.274 54.5176 130.086 55.2369 129.864C53.8138 128.605 52.1433 127.658 50.3325 127.082Z" fill="#2F2E41"/>
<path d="M49.8792 130.682C49.5528 130.706 49.2387 130.816 48.9688 131.001C50.3401 130.916 51.703 130.727 53.0457 130.435L49.8792 130.682Z" fill="#2F2E41"/>
<path d="M58.7162 105.066L35.3323 96.511C35.0817 96.4194 34.8778 96.2319 34.7654 95.9899C34.6531 95.7479 34.6414 95.4711 34.7331 95.2205L34.8122 94.8465C36.6385 89.8543 42.6916 86.7124 47.6836 88.5387L54.8794 91.1712C59.8714 92.9976 62.0411 98.909 60.2148 103.901L60.0067 104.467C59.915 104.717 59.7275 104.921 59.4855 105.034C59.2435 105.146 58.9668 105.158 58.7162 105.066Z" fill="#2F2E41"/>
<path d="M59.9759 105.541C27.3832 106.743 24.5353 102.648 34.466 96.208L36.5728 92.3313L60.7179 101.135L59.9759 105.541Z" fill="#2F2E41"/>
<path d="M53.5846 90.5574C53.7645 89.9587 52.9938 89.1979 51.863 88.858C50.7323 88.5181 49.6698 88.7278 49.4899 89.3265C49.3099 89.9251 50.0807 90.6859 51.2114 91.0258C52.3421 91.3657 53.4046 91.156 53.5846 90.5574Z" fill="#2F2E41"/>
<path d="M47.1708 131.816C43.9711 131.82 40.7939 131.281 37.7738 130.224L37.5113 130.131C31.1853 127.845 25.8752 123.389 22.5253 117.555C19.1754 111.722 18.0029 104.89 19.2163 98.2736C20.4297 91.6572 23.9504 85.6857 29.1522 81.421C34.354 77.1563 40.8997 74.8748 47.6253 74.9824C54.3509 75.09 60.8203 77.5796 65.8831 82.0085C70.9459 86.4373 74.2738 92.5184 75.275 99.1702C76.2762 105.822 74.8858 112.613 71.3511 118.336C67.8164 124.059 62.3665 128.343 55.9706 130.426C55.7918 130.483 55.6236 130.536 55.4526 130.587C54.7383 130.807 53.9804 131.005 53.206 131.173C51.8258 131.472 50.425 131.666 49.0155 131.754C48.4099 131.795 47.7877 131.816 47.1708 131.816ZM47.1708 76.4814C40.8381 76.4823 34.7084 78.7162 29.86 82.7902C25.0115 86.8642 21.7548 92.5174 20.6625 98.7555C19.5702 104.994 20.7125 111.417 23.8882 116.896C27.064 122.375 32.0699 126.559 38.0256 128.712L38.2748 128.801C41.1339 129.801 44.1417 130.311 47.1708 130.307C47.754 130.307 48.3419 130.287 48.9182 130.248C50.253 130.165 51.5795 129.981 52.8866 129.698C53.619 129.539 54.3351 129.352 55.0149 129.143C55.1832 129.093 55.3429 129.042 55.5028 128.991C61.5945 127.007 66.7787 122.915 70.1234 117.45C73.4681 111.986 74.754 105.507 73.75 99.1796C72.7459 92.8518 69.5177 87.0897 64.6458 82.9291C59.7738 78.7685 53.5775 76.4823 47.1708 76.4814Z" fill="#CCCCCC"/>
<path d="M156.031 267.137H7.07342C5.19808 267.135 3.40016 266.389 2.07409 265.063C0.748024 263.737 0.00211056 261.939 0 260.063V57.8381C0.00211057 55.9627 0.748023 54.1647 2.07409 52.8386C3.40016 51.5125 5.19808 50.7665 7.07342 50.7644H156.031C157.907 50.7665 159.705 51.5125 161.031 52.8386C162.357 54.1647 163.103 55.9627 163.105 57.8381V260.063C163.103 261.939 162.357 263.737 161.031 265.063C159.705 266.389 157.907 267.135 156.031 267.137ZM7.07342 51.5966C5.41871 51.5985 3.83232 52.2567 2.66227 53.4268C1.49221 54.5969 0.834044 56.1833 0.832168 57.8381V260.063C0.834043 261.718 1.4922 263.305 2.66225 264.475C3.83231 265.645 5.41871 266.303 7.07342 266.305H156.031C157.686 266.303 159.273 265.645 160.443 264.475C161.613 263.305 162.271 261.718 162.273 260.063V57.8381C162.271 56.1833 161.613 54.5969 160.443 53.4268C159.273 52.2567 157.686 51.5985 156.031 51.5966H7.07342Z" fill="#CCCCCC"/>
<path d="M127.195 103.287H85.0453C84.1616 103.285 83.3145 102.934 82.6901 102.308C82.0656 101.683 81.7148 100.836 81.7148 99.9519C81.7148 99.0682 82.0656 98.2206 82.6901 97.5953C83.3145 96.9701 84.1616 96.6183 85.0453 96.6172H127.195C127.633 96.6166 128.068 96.7025 128.473 96.8698C128.878 97.0372 129.246 97.2827 129.556 97.5924C129.866 97.9021 130.112 98.2699 130.28 98.6748C130.448 99.0796 130.534 99.5136 130.534 99.9519C130.534 100.39 130.448 100.824 130.28 101.229C130.112 101.634 129.866 102.002 129.556 102.311C129.246 102.621 128.878 102.867 128.473 103.034C128.068 103.201 127.633 103.287 127.195 103.287Z" fill="#E6E6E6"/>
<path d="M140.95 114.541H85.0453C84.1616 114.54 83.3145 114.188 82.6901 113.563C82.0656 112.938 81.7148 112.09 81.7148 111.206C81.7148 110.323 82.0656 109.475 82.6901 108.85C83.3145 108.224 84.1616 107.873 85.0453 107.872H140.95C141.834 107.873 142.681 108.224 143.305 108.85C143.93 109.475 144.281 110.323 144.281 111.206C144.281 112.09 143.93 112.938 143.305 113.563C142.681 114.188 141.834 114.54 140.95 114.541Z" fill="#E6E6E6"/>
<path d="M127.134 157.707H22.1551C21.7168 157.708 21.2828 157.622 20.8777 157.454C20.4727 157.287 20.1046 157.041 19.7945 156.732C19.4844 156.422 19.2385 156.054 19.0706 155.649C18.9028 155.245 18.8164 154.811 18.8164 154.372C18.8164 153.934 18.9028 153.5 19.0706 153.095C19.2385 152.69 19.4844 152.323 19.7945 152.013C20.1046 151.703 20.4727 151.458 20.8777 151.29C21.2828 151.123 21.7168 151.037 22.1551 151.038H127.134C128.017 151.039 128.864 151.391 129.489 152.016C130.113 152.641 130.464 153.489 130.464 154.372C130.464 155.256 130.113 156.104 129.489 156.729C128.864 157.354 128.017 157.706 127.134 157.707Z" fill="#E6E6E6"/>
<path d="M140.889 168.962H22.1551C21.7168 168.962 21.2828 168.876 20.8777 168.709C20.4727 168.542 20.1046 168.296 19.7945 167.986C19.4844 167.677 19.2385 167.309 19.0706 166.904C18.9028 166.499 18.8164 166.065 18.8164 165.627C18.8164 165.189 18.9028 164.755 19.0706 164.35C19.2385 163.945 19.4844 163.577 19.7945 163.267C20.1046 162.958 20.4727 162.712 20.8777 162.545C21.2828 162.378 21.7168 162.292 22.1551 162.292H140.889C141.327 162.292 141.761 162.378 142.166 162.545C142.571 162.712 142.939 162.958 143.249 163.267C143.559 163.577 143.805 163.945 143.973 164.35C144.141 164.755 144.227 165.189 144.227 165.627C144.227 166.065 144.141 166.499 143.973 166.904C143.805 167.309 143.559 167.677 143.249 167.986C142.939 168.296 142.571 168.542 142.166 168.709C141.761 168.876 141.327 168.962 140.889 168.962Z" fill="#E6E6E6"/>
<path d="M127.133 194.829H22.1549C21.2705 194.829 20.4223 194.477 19.797 193.852C19.1716 193.227 18.8203 192.379 18.8203 191.494C18.8203 190.61 19.1716 189.762 19.797 189.136C20.4223 188.511 21.2705 188.159 22.1549 188.159H127.133C128.018 188.159 128.866 188.511 129.491 189.136C130.117 189.762 130.468 190.61 130.468 191.494C130.468 192.379 130.117 193.227 129.491 193.852C128.866 194.477 128.018 194.829 127.133 194.829Z" fill="#E6E6E6"/>
<path d="M140.888 206.083H22.1549C21.2705 206.083 20.4223 205.732 19.797 205.107C19.1716 204.481 18.8203 203.633 18.8203 202.749C18.8203 201.864 19.1716 201.016 19.797 200.391C20.4223 199.765 21.2705 199.414 22.1549 199.414H140.888C141.773 199.414 142.621 199.765 143.246 200.391C143.872 201.016 144.223 201.864 144.223 202.749C144.223 203.633 143.872 204.481 143.246 205.107C142.621 205.732 141.773 206.083 140.888 206.083Z" fill="#E6E6E6"/>
<path d="M127.133 231.951H22.1549C21.2705 231.951 20.4223 231.599 19.797 230.974C19.1716 230.349 18.8203 229.5 18.8203 228.616C18.8203 227.732 19.1716 226.883 19.797 226.258C20.4223 225.633 21.2705 225.281 22.1549 225.281H127.133C128.018 225.281 128.866 225.633 129.491 226.258C130.117 226.883 130.468 227.732 130.468 228.616C130.468 229.5 130.117 230.349 129.491 230.974C128.866 231.599 128.018 231.951 127.133 231.951Z" fill="#E6E6E6"/>
<path d="M140.888 243.205H22.1549C21.2705 243.205 20.4223 242.854 19.797 242.229C19.1716 241.603 18.8203 240.755 18.8203 239.871C18.8203 238.986 19.1716 238.138 19.797 237.513C20.4223 236.887 21.2705 236.536 22.1549 236.536H140.888C141.773 236.536 142.621 236.887 143.246 237.513C143.872 238.138 144.223 238.986 144.223 239.871C144.223 240.755 143.872 241.603 143.246 242.229C142.621 242.854 141.773 243.205 140.888 243.205Z" fill="#E6E6E6"/>
<path d="M349.926 216.373L200.968 216.373C199.093 216.371 197.295 215.625 195.969 214.299C194.643 212.973 193.897 211.175 193.895 209.299L193.895 7.07385C193.897 5.19843 194.643 3.40043 195.969 2.0743C197.295 0.748178 199.093 0.00222909 200.968 0.000117075L349.926 0C351.801 0.0021093 353.599 0.748048 354.925 2.07417C356.251 3.40029 356.997 5.1983 356.999 7.07372L357 209.299C356.997 211.175 356.252 212.973 354.925 214.299C353.599 215.625 351.801 216.371 349.926 216.373Z" fill="white"/>
<path d="M349.926 216.373L200.968 216.373C199.093 216.371 197.295 215.625 195.969 214.299C194.643 212.973 193.897 211.175 193.895 209.299L193.895 7.07385C193.897 5.19843 194.643 3.40043 195.969 2.0743C197.295 0.748178 199.093 0.00222909 200.968 0.000117075L349.926 0C351.801 0.0021093 353.599 0.748048 354.925 2.07417C356.251 3.40029 356.997 5.1983 356.999 7.07372L357 209.299C356.997 211.175 356.252 212.973 354.925 214.299C353.599 215.625 351.801 216.371 349.926 216.373ZM200.968 0.83232C199.313 0.834197 197.727 1.49239 196.557 2.6625C195.387 3.83261 194.729 5.41907 194.727 7.07385L194.727 209.299C194.729 210.954 195.387 212.54 196.557 213.711C197.727 214.881 199.313 215.539 200.968 215.541L349.926 215.541C351.581 215.539 353.167 214.881 354.337 213.71C355.507 212.54 356.165 210.954 356.167 209.299L356.167 7.07373C356.165 5.41895 355.507 3.83248 354.337 2.66237C353.167 1.49227 351.581 0.834077 349.926 0.832203L200.968 0.83232Z" fill="#CCCCCC"/>
<path d="M268.801 52.3542C268.801 57.8262 267.179 63.1755 264.139 67.7253C261.099 72.2752 256.778 75.8214 251.722 77.9155C246.667 80.0096 241.104 80.5575 235.738 79.49C230.371 78.4224 225.441 75.7873 221.572 71.918C217.703 68.0486 215.068 63.1188 214 57.7518C212.933 52.3849 213.481 46.8219 215.575 41.7663C217.669 36.7108 221.215 32.3897 225.764 29.3496C230.314 26.3094 235.663 24.6868 241.135 24.6868C248.472 24.6891 255.507 27.6048 260.695 32.7929C265.883 37.981 268.799 45.017 268.801 52.3542Z" fill="white"/>
<path d="M253.921 57.0882C253.619 74.783 227.3 74.7803 227 57.0877C227.302 39.3935 253.622 39.3962 253.921 57.0882Z" fill="#05904D"/>
<path d="M239.928 62.5804L239.914 62.0773C243.381 62.5402 244.128 58.2433 240.631 59.8497L241.429 54.0168L241.928 54.0851L241.249 59.0468C244.93 58.4988 243.569 63.0831 239.928 62.5804Z" fill="#2F2E41"/>
<path d="M247.1 54.5132H244.391V55.0162H247.1V54.5132Z" fill="#2F2E41"/>
<path d="M238.549 54.5132H235.84V55.0162H238.549V54.5132Z" fill="#2F2E41"/>
<path d="M244.825 75.9091C245.354 72.3451 241.181 73.0493 238.973 73.0141C238.617 73.0152 238.265 73.0957 237.944 73.2498C237.623 73.4039 237.341 73.6276 237.117 73.9047C236.894 74.1818 236.735 74.5053 236.652 74.8516C236.569 75.198 236.565 75.5584 236.639 75.9066C234.93 76.435 233.347 77.3081 231.988 78.4722C237.713 80.4686 243.934 80.5375 249.702 78.6683C248.296 77.4056 246.632 76.464 244.825 75.9091Z" fill="#2F2E41"/>
<path d="M234.135 50.7213C236.629 49.2796 239.655 50.3857 242.231 50.9904C247.12 52.4934 253.976 50.6113 254.571 44.7872C255.189 39.3707 247.78 36.3519 245.412 41.7429L246.101 41.6528C238.421 30.2382 225.061 30.6711 225.149 46.3642C225.121 46.849 225.875 46.8473 225.904 46.3639C225.621 37.1162 231.741 30.7948 240.392 36.7377C242.324 38.2503 244.028 40.0341 245.45 42.0336C246.351 43.0434 246.547 38.6948 250.859 39.8338C255.605 41.6724 254.056 48.4682 249.814 49.96C244.573 52.6378 238.897 47.446 233.754 50.0695C233.671 50.1218 233.612 50.2042 233.589 50.2993C233.565 50.3944 233.58 50.4948 233.629 50.5794C233.679 50.6639 233.759 50.726 233.853 50.7525C233.948 50.779 234.049 50.7678 234.135 50.7213Z" fill="#2F2E41"/>
<path d="M241.135 80.7761C233.99 80.7701 227.11 78.0711 221.867 73.2173C216.625 68.3635 213.404 61.7117 212.848 54.5885C212.292 47.4653 214.441 40.3943 218.867 34.7856C223.293 29.1769 229.671 25.4427 236.728 24.3279C243.785 23.2131 251.003 24.7995 256.942 28.7707C262.881 32.742 267.106 38.8062 268.772 45.754C270.439 52.7017 269.425 60.0224 265.934 66.256C262.442 72.4896 256.729 77.1779 249.934 79.386C247.093 80.3102 244.123 80.7794 241.135 80.7761ZM241.135 25.4413C235.811 25.4406 230.607 27.0187 226.18 29.976C221.753 32.9334 218.302 37.1371 216.265 42.0557C214.227 46.9742 213.694 52.3866 214.732 57.6082C215.771 62.8299 218.334 67.6264 222.099 71.3909C225.863 75.1555 230.659 77.7192 235.881 78.7576C241.102 79.7961 246.514 79.2627 251.433 77.225C256.351 75.1873 260.555 71.7367 263.512 67.3097C266.469 62.8827 268.047 57.6781 268.046 52.3541C268.038 45.2189 265.2 38.3782 260.155 33.3328C255.11 28.2874 248.27 25.4494 241.135 25.4413Z" fill="#CCCCCC"/>
<path d="M321.09 52.5219L278.94 52.5219C278.056 52.5219 277.207 52.1706 276.582 51.5452C275.957 50.9199 275.605 50.0717 275.605 49.1873C275.605 48.3028 275.957 47.4547 276.582 46.8293C277.207 46.2039 278.056 45.8526 278.94 45.8526L321.09 45.8525C321.974 45.8525 322.823 46.2039 323.448 46.8292C324.073 47.4546 324.425 48.3028 324.425 49.1872C324.425 50.0716 324.073 50.9198 323.448 51.5452C322.823 52.1706 321.974 52.5219 321.09 52.5219Z" fill="#E6E6E6"/>
<path d="M334.845 63.7766L278.94 63.7766C278.502 63.7771 278.068 63.6913 277.663 63.5239C277.258 63.3566 276.89 63.1111 276.58 62.8014C276.27 62.4916 276.024 62.1238 275.856 61.719C275.688 61.3141 275.602 60.8802 275.602 60.4419C275.602 60.0037 275.688 59.5697 275.856 59.1648C276.024 58.76 276.27 58.3922 276.58 58.0825C276.89 57.7728 277.258 57.5272 277.663 57.3599C278.068 57.1925 278.502 57.1067 278.94 57.1072L334.845 57.1072C335.73 57.1072 336.578 57.4585 337.203 58.0839C337.828 58.7093 338.18 59.5575 338.18 60.4419C338.18 61.3263 337.828 62.1745 337.203 62.7998C336.578 63.4252 335.73 63.7766 334.845 63.7766Z" fill="#E6E6E6"/>
<path d="M321.028 106.943L216.049 106.943C215.166 106.942 214.318 106.59 213.694 105.964C213.07 105.339 212.719 104.492 212.719 103.608C212.719 102.724 213.07 101.877 213.694 101.251C214.318 100.626 215.166 100.274 216.049 100.273L321.028 100.273C321.912 100.273 322.76 100.625 323.386 101.25C324.011 101.875 324.362 102.723 324.362 103.608C324.362 104.492 324.011 105.34 323.386 105.966C322.76 106.591 321.912 106.943 321.028 106.943Z" fill="#E6E6E6"/>
<path d="M334.783 118.197L216.05 118.197C215.611 118.198 215.177 118.112 214.772 117.944C214.367 117.777 213.999 117.532 213.689 117.222C213.379 116.912 213.133 116.544 212.965 116.139C212.797 115.735 212.711 115.301 212.711 114.862C212.711 114.424 212.797 113.99 212.965 113.585C213.133 113.18 213.379 112.813 213.689 112.503C213.999 112.193 214.367 111.948 214.772 111.78C215.177 111.613 215.611 111.527 216.05 111.528L334.783 111.528C335.668 111.528 336.516 111.879 337.141 112.504C337.766 113.13 338.118 113.978 338.118 114.862C338.118 115.747 337.766 116.595 337.141 117.22C336.516 117.846 335.668 118.197 334.783 118.197Z" fill="#E6E6E6"/>
<path d="M321.028 144.064L216.049 144.064C215.166 144.063 214.318 143.712 213.694 143.086C213.07 142.461 212.719 141.613 212.719 140.73C212.719 139.846 213.07 138.999 213.694 138.373C214.318 137.748 215.166 137.396 216.049 137.395L321.028 137.395C321.912 137.395 322.76 137.746 323.386 138.372C324.011 138.997 324.362 139.845 324.362 140.73C324.362 141.614 324.011 142.462 323.386 143.088C322.76 143.713 321.912 144.064 321.028 144.064Z" fill="#E6E6E6"/>
<path d="M334.783 155.319L216.05 155.319C215.611 155.32 215.177 155.234 214.772 155.066C214.367 154.899 213.999 154.654 213.689 154.344C213.379 154.034 213.133 153.666 212.965 153.262C212.797 152.857 212.711 152.423 212.711 151.984C212.711 151.546 212.797 151.112 212.965 150.707C213.133 150.302 213.379 149.935 213.689 149.625C213.999 149.315 214.367 149.07 214.772 148.902C215.177 148.735 215.611 148.649 216.05 148.65L334.783 148.65C335.668 148.65 336.516 149.001 337.141 149.626C337.766 150.252 338.118 151.1 338.118 151.984C338.118 152.869 337.766 153.717 337.141 154.342C336.516 154.968 335.668 155.319 334.783 155.319Z" fill="#E6E6E6"/>
<path d="M321.028 181.186L216.049 181.186C215.165 181.186 214.317 180.835 213.691 180.21C213.066 179.584 212.715 178.736 212.715 177.852C212.715 176.967 213.066 176.119 213.691 175.494C214.317 174.868 215.165 174.517 216.049 174.517L321.028 174.517C321.912 174.517 322.761 174.868 323.386 175.494C324.011 176.119 324.363 176.967 324.363 177.852C324.363 178.736 324.011 179.584 323.386 180.21C322.761 180.835 321.912 181.186 321.028 181.186Z" fill="#E6E6E6"/>
<path d="M334.783 192.441L216.049 192.441C215.165 192.441 214.317 192.09 213.692 191.464C213.066 190.839 212.715 189.991 212.715 189.106C212.715 188.222 213.066 187.374 213.692 186.748C214.317 186.123 215.165 185.772 216.049 185.772L334.783 185.771C335.667 185.771 336.516 186.123 337.141 186.748C337.766 187.374 338.118 188.222 338.118 189.106C338.118 189.991 337.766 190.839 337.141 191.464C336.516 192.09 335.667 192.441 334.783 192.441Z" fill="#E6E6E6"/>
<path d="M260.051 303.338H111.093C109.218 303.336 107.42 302.59 106.094 301.264C104.768 299.938 104.022 298.14 104.02 296.264V94.0391C104.022 92.1636 104.768 90.3656 106.094 89.0395C107.42 87.7134 109.218 86.9674 111.093 86.9653H260.051C261.926 86.9674 263.724 87.7134 265.05 89.0395C266.376 90.3656 267.122 92.1636 267.124 94.0391V296.264C267.122 298.14 266.376 299.938 265.05 301.264C263.724 302.59 261.926 303.336 260.051 303.338Z" fill="white"/>
<path d="M123.52 139.026C123.515 142.668 124.231 146.274 125.627 149.638C127.023 153.001 129.071 156.055 131.653 158.622C131.87 158.836 132.091 159.05 132.315 159.259C133.663 160.518 135.134 161.64 136.706 162.606C137.008 162.793 137.31 162.971 137.619 163.145C139.209 164.041 140.884 164.776 142.619 165.34C142.919 165.439 143.223 165.532 143.527 165.617C149.044 167.199 154.915 167.034 160.333 165.144C160.439 165.107 160.545 165.069 160.648 165.031C165.404 163.301 169.595 160.298 172.764 156.351C175.933 152.403 177.958 147.662 178.62 142.644C179.281 137.625 178.553 132.521 176.515 127.888C174.477 123.254 171.207 119.269 167.061 116.365C162.915 113.461 158.052 111.75 153.001 111.418C147.95 111.087 142.905 112.147 138.415 114.484C133.925 116.821 130.162 120.345 127.535 124.672C124.909 128.999 123.52 133.964 123.52 139.026Z" fill="white"/>
<path d="M145.342 152.587C145.356 154.731 144.566 156.802 143.128 158.391C141.706 159.953 139.588 160.988 137.451 160.56C135.483 160.165 133.884 158.445 134.083 156.364C134.116 155.914 134.247 155.476 134.467 155.081C134.687 154.686 134.99 154.344 135.356 154.078C135.721 153.812 136.14 153.63 136.584 153.542C137.027 153.455 137.484 153.466 137.923 153.574C139.792 154.059 140.537 156.753 138.979 158.018C138.606 158.321 138.069 157.791 138.446 157.484C138.679 157.271 138.854 157.004 138.957 156.706C139.059 156.407 139.085 156.088 139.032 155.778C138.979 155.467 138.849 155.174 138.654 154.927C138.459 154.679 138.205 154.484 137.915 154.361C137.573 154.251 137.21 154.221 136.855 154.272C136.499 154.323 136.16 154.455 135.863 154.657C135.565 154.858 135.318 155.125 135.139 155.437C134.96 155.748 134.855 156.096 134.83 156.455C134.707 158.209 136.051 159.53 137.699 159.841C139.481 160.177 141.249 159.265 142.457 158.006C143.841 156.543 144.605 154.601 144.588 152.587C144.591 152.489 144.632 152.397 144.703 152.329C144.773 152.26 144.867 152.222 144.965 152.222C145.063 152.222 145.157 152.26 145.228 152.329C145.298 152.397 145.339 152.489 145.342 152.587Z" fill="#2F2E41"/>
<path d="M152.711 157.384C160.145 157.384 166.171 151.357 166.171 143.923C166.171 136.488 160.145 130.461 152.711 130.461C145.277 130.461 139.25 136.488 139.25 143.923C139.25 151.357 145.277 157.384 152.711 157.384Z" fill="#05904D"/>
<path d="M152.022 149.667L152.008 149.164C152.944 149.137 153.769 149.079 154.389 148.626C154.564 148.49 154.709 148.318 154.812 148.122C154.915 147.925 154.975 147.709 154.988 147.487C154.998 147.351 154.978 147.215 154.928 147.089C154.877 146.963 154.799 146.85 154.698 146.759C154.463 146.617 154.195 146.541 153.921 146.538C153.647 146.536 153.378 146.607 153.141 146.745L152.725 146.936L153.523 141.103L154.022 141.171L153.343 146.133C153.621 146.03 153.92 145.998 154.213 146.04C154.507 146.082 154.785 146.197 155.022 146.375C155.182 146.514 155.307 146.689 155.389 146.885C155.47 147.081 155.505 147.293 155.49 147.505C155.475 147.802 155.396 148.094 155.257 148.357C155.118 148.621 154.923 148.852 154.685 149.032C153.889 149.614 152.854 149.643 152.022 149.667Z" fill="#2F2E41"/>
<path d="M159.194 141.599H156.484V142.102H159.194V141.599Z" fill="#2F2E41"/>
<path d="M150.643 141.599H147.934V142.102H150.643V141.599Z" fill="#2F2E41"/>
<path d="M143.527 165.617C149.044 167.199 154.915 167.034 160.333 165.144C160.439 165.107 160.545 165.069 160.648 165.031C159.371 164.046 157.927 163.3 156.385 162.828C156.494 162.441 156.492 162.031 156.38 161.646C156.227 161.157 155.921 160.73 155.506 160.429C155.091 160.128 154.591 159.969 154.078 159.976H150.799C150.287 159.969 149.787 160.127 149.373 160.428C148.96 160.728 148.654 161.155 148.502 161.643C148.39 162.03 148.388 162.44 148.497 162.828C147.139 163.244 145.855 163.873 144.694 164.692C144.46 164.855 144.234 165.026 144.015 165.205C143.849 165.338 143.686 165.476 143.527 165.617Z" fill="#2F2E41"/>
<path d="M163.254 142.495C163.254 144.763 164.371 146.645 165.822 146.972C165.97 147.005 166.121 147.022 166.272 147.022C167.934 147.022 169.29 144.992 169.29 142.495C169.328 141.207 168.917 139.946 168.128 138.928C167.883 138.631 167.581 138.386 167.24 138.206C166.941 138.05 166.609 137.968 166.272 137.967C165.809 137.973 165.359 138.124 164.987 138.4C163.963 139.124 163.254 140.686 163.254 142.495Z" fill="#3F3D56"/>
<path d="M136.342 142.495C136.342 144.446 137.167 146.112 138.324 146.748C138.641 146.925 138.997 147.02 139.36 147.022C139.441 147.022 139.522 147.017 139.602 147.007C141.151 146.823 142.378 144.872 142.378 142.495C142.378 140.591 141.591 138.958 140.479 138.292C140.143 138.083 139.756 137.971 139.36 137.967C139.023 137.968 138.691 138.05 138.392 138.206C138.05 138.387 137.748 138.633 137.502 138.931C136.715 139.949 136.305 141.208 136.342 142.495Z" fill="#3F3D56"/>
<path d="M138.513 146.314C138.573 146.314 138.632 146.3 138.685 146.272C138.738 146.245 138.784 146.205 138.819 146.157C138.854 146.108 138.877 146.052 138.886 145.992C138.895 145.933 138.889 145.873 138.87 145.816C138.149 143.672 137.932 141.39 138.236 139.148C138.541 136.907 139.357 134.765 140.624 132.89C141.89 131.016 143.571 129.458 145.537 128.339C147.503 127.22 149.701 126.569 151.959 126.437C154.217 126.306 156.476 126.696 158.558 127.579C160.641 128.462 162.492 129.814 163.968 131.528C165.443 133.243 166.504 135.275 167.067 137.466C167.629 139.657 167.679 141.949 167.212 144.162C167.192 144.26 167.211 144.362 167.266 144.446C167.32 144.529 167.406 144.588 167.504 144.609C167.602 144.629 167.704 144.61 167.787 144.556C167.871 144.501 167.93 144.416 167.951 144.318C168.442 141.991 168.39 139.581 167.798 137.278C167.207 134.974 166.092 132.837 164.541 131.034C162.989 129.231 161.043 127.811 158.853 126.882C156.663 125.954 154.289 125.543 151.914 125.682C149.54 125.82 147.23 126.504 145.163 127.681C143.096 128.858 141.328 130.496 139.997 132.467C138.666 134.438 137.807 136.69 137.488 139.047C137.168 141.404 137.397 143.803 138.155 146.057C138.181 146.132 138.229 146.197 138.293 146.243C138.357 146.289 138.434 146.314 138.513 146.314Z" fill="#3F3D56"/>
<path d="M159.47 135.201C159.693 135.566 159.786 135.996 159.733 136.42C159.68 136.844 159.485 137.238 159.179 137.537C158.448 138.353 157.282 138.404 156.271 138.253C155.135 138.083 153.931 137.551 152.781 137.909C151.802 138.215 151.103 139.104 150.085 139.327C149.182 139.525 148.103 139.263 147.786 138.301C147.634 137.838 148.363 137.64 148.514 138.1C148.719 138.722 149.603 138.71 150.109 138.538C150.92 138.261 151.546 137.589 152.344 137.268C153.295 136.974 154.313 136.976 155.262 137.276C156.165 137.479 157.203 137.781 158.102 137.401C158.768 137.12 159.297 136.235 158.818 135.582C158.531 135.19 159.186 134.813 159.47 135.201Z" fill="#2F2E41"/>
<path d="M151.186 167.448C148.524 167.45 145.876 167.078 143.318 166.342C143.017 166.258 142.702 166.161 142.384 166.057C140.602 165.477 138.882 164.722 137.249 163.802C136.943 163.63 136.635 163.449 136.31 163.249C134.696 162.256 133.185 161.104 131.799 159.81C131.571 159.597 131.344 159.378 131.123 159.159C126.767 154.816 123.937 149.176 123.06 143.087C122.183 136.998 123.305 130.788 126.258 125.391C129.211 119.995 133.835 115.702 139.436 113.158C145.037 110.614 151.313 109.956 157.319 111.283C163.326 112.611 168.74 115.851 172.748 120.519C176.756 125.186 179.141 131.028 179.545 137.166C179.949 143.305 178.351 149.409 174.99 154.561C171.628 159.714 166.686 163.637 160.905 165.74C160.802 165.778 160.694 165.816 160.587 165.855C157.565 166.913 154.387 167.451 151.186 167.448ZM151.186 112.113C145.859 112.114 140.653 113.694 136.225 116.655C131.798 119.617 128.349 123.825 126.314 128.748C124.28 133.67 123.752 139.086 124.797 144.309C125.842 149.532 128.414 154.327 132.186 158.088C132.395 158.294 132.611 158.503 132.829 158.707C134.141 159.932 135.572 161.023 137.101 161.964C137.409 162.153 137.699 162.324 137.988 162.486C139.535 163.358 141.164 164.073 142.852 164.623C143.151 164.721 143.446 164.81 143.731 164.891C149.098 166.431 154.811 166.271 160.084 164.432L160.388 164.322C166.334 162.158 171.327 157.968 174.491 152.488C177.655 147.008 178.787 140.588 177.689 134.357C176.59 128.125 173.331 122.48 168.485 118.412C163.638 114.344 157.513 112.114 151.186 112.113Z" fill="#CCCCCC"/>
<path d="M260.051 303.338H111.093C109.218 303.336 107.42 302.59 106.094 301.264C104.768 299.938 104.022 298.14 104.02 296.264V94.0391C104.022 92.1636 104.768 90.3656 106.094 89.0395C107.42 87.7134 109.218 86.9674 111.093 86.9653H260.051C261.926 86.9674 263.724 87.7134 265.05 89.0395C266.376 90.3656 267.122 92.1636 267.124 94.0391V296.264C267.122 298.14 266.376 299.938 265.05 301.264C263.724 302.59 261.926 303.336 260.051 303.338ZM111.093 87.7975C109.438 87.7994 107.852 88.4576 106.682 89.6277C105.512 90.7978 104.854 92.3843 104.852 94.039V296.264C104.854 297.919 105.512 299.506 106.682 300.676C107.852 301.846 109.438 302.504 111.093 302.506H260.051C261.706 302.504 263.292 301.846 264.462 300.676C265.632 299.506 266.29 297.919 266.292 296.264V94.0391C266.29 92.3843 265.632 90.7978 264.462 89.6277C263.292 88.4576 261.706 87.7994 260.051 87.7975H111.093Z" fill="#3F3D56"/>
<path d="M231.215 139.487H189.065C188.181 139.487 187.332 139.136 186.707 138.511C186.082 137.885 185.73 137.037 185.73 136.153C185.73 135.268 186.082 134.42 186.707 133.795C187.332 133.169 188.181 132.818 189.065 132.818H231.215C232.099 132.818 232.948 133.169 233.573 133.795C234.198 134.42 234.55 135.268 234.55 136.153C234.55 137.037 234.198 137.885 233.573 138.511C232.948 139.136 232.099 139.487 231.215 139.487Z" fill="#05904D"/>
<path d="M244.97 150.742H189.065C188.181 150.742 187.332 150.391 186.707 149.765C186.082 149.14 185.73 148.292 185.73 147.407C185.73 146.523 186.082 145.675 186.707 145.049C187.332 144.424 188.181 144.073 189.065 144.073H244.97C245.854 144.073 246.703 144.424 247.328 145.049C247.953 145.675 248.305 146.523 248.305 147.407C248.305 148.292 247.953 149.14 247.328 149.765C246.703 150.391 245.854 150.742 244.97 150.742Z" fill="#05904D"/>
<path d="M231.153 193.908H126.174C125.29 193.908 124.442 193.556 123.817 192.931C123.191 192.306 122.84 191.457 122.84 190.573C122.84 189.689 123.191 188.84 123.817 188.215C124.442 187.59 125.29 187.238 126.174 187.238H231.153C232.037 187.238 232.886 187.59 233.511 188.215C234.136 188.84 234.488 189.689 234.488 190.573C234.488 191.457 234.136 192.306 233.511 192.931C232.886 193.556 232.037 193.908 231.153 193.908Z" fill="#CCCCCC"/>
<path d="M244.908 205.162H126.174C125.29 205.162 124.442 204.811 123.817 204.186C123.191 203.56 122.84 202.712 122.84 201.828C122.84 200.943 123.191 200.095 123.817 199.47C124.442 198.844 125.29 198.493 126.174 198.493H244.908C245.792 198.493 246.641 198.844 247.266 199.47C247.891 200.095 248.243 200.943 248.243 201.828C248.243 202.712 247.891 203.56 247.266 204.186C246.641 204.811 245.792 205.162 244.908 205.162Z" fill="#CCCCCC"/>
<path d="M231.153 231.03H126.174C125.291 231.029 124.443 230.677 123.819 230.052C123.194 229.426 122.844 228.579 122.844 227.695C122.844 226.811 123.194 225.964 123.819 225.339C124.443 224.713 125.291 224.361 126.174 224.36H231.153C232.037 224.36 232.885 224.712 233.511 225.337C234.136 225.962 234.487 226.811 234.487 227.695C234.487 228.579 234.136 229.428 233.511 230.053C232.885 230.678 232.037 231.03 231.153 231.03Z" fill="#CCCCCC"/>
<path d="M244.908 242.284H126.174C125.291 242.283 124.443 241.931 123.819 241.306C123.194 240.681 122.844 239.833 122.844 238.949C122.844 238.066 123.194 237.218 123.819 236.593C124.443 235.968 125.291 235.616 126.174 235.615H244.908C245.792 235.615 246.64 235.966 247.266 236.591C247.891 237.217 248.242 238.065 248.242 238.949C248.242 239.834 247.891 240.682 247.266 241.307C246.64 241.933 245.792 242.284 244.908 242.284Z" fill="#CCCCCC"/>
<path d="M231.153 268.152H126.174C125.29 268.152 124.442 267.8 123.817 267.175C123.191 266.549 122.84 265.701 122.84 264.817C122.84 263.932 123.191 263.084 123.817 262.459C124.442 261.834 125.29 261.482 126.174 261.482H231.153C232.037 261.482 232.886 261.834 233.511 262.459C234.136 263.084 234.488 263.932 234.488 264.817C234.488 265.701 234.136 266.549 233.511 267.175C232.886 267.8 232.037 268.152 231.153 268.152Z" fill="#CCCCCC"/>
<path d="M244.908 279.406H126.174C125.29 279.406 124.442 279.055 123.817 278.429C123.191 277.804 122.84 276.956 122.84 276.071C122.84 275.187 123.191 274.339 123.817 273.714C124.442 273.088 125.29 272.737 126.174 272.737H244.908C245.792 272.737 246.641 273.088 247.266 273.714C247.891 274.339 248.243 275.187 248.243 276.071C248.243 276.956 247.891 277.804 247.266 278.429C246.641 279.055 245.792 279.406 244.908 279.406Z" fill="#CCCCCC"/>
<path d="M258.324 257.29C254.007 257.285 249.73 258.131 245.74 259.78C241.75 261.429 238.124 263.848 235.069 266.9C232.015 269.951 229.591 273.574 227.938 277.563C226.285 281.552 225.434 285.827 225.434 290.145C225.434 294.462 226.285 298.738 227.938 302.726C229.591 306.715 232.014 310.338 235.069 313.39C238.124 316.441 241.75 318.86 245.74 320.509C249.73 322.158 254.006 323.005 258.324 323C267.027 322.984 275.369 319.516 281.518 313.356C287.666 307.196 291.12 298.848 291.12 290.145C291.12 281.441 287.666 273.093 281.518 266.933C275.369 260.773 267.027 257.305 258.324 257.29Z" fill="#05904D"/>
<path d="M255.206 303.79C254.341 303.791 253.499 303.511 252.807 302.992L252.764 302.96L243.73 296.049C242.886 295.4 242.333 294.444 242.195 293.388C242.056 292.333 242.341 291.266 242.989 290.421C243.636 289.577 244.593 289.024 245.648 288.884C246.703 288.744 247.77 289.029 248.615 289.676L254.467 294.163L268.296 276.122C268.617 275.703 269.016 275.352 269.473 275.089C269.929 274.825 270.433 274.654 270.955 274.585C271.478 274.516 272.009 274.55 272.518 274.686C273.027 274.823 273.504 275.058 273.923 275.378L273.924 275.379L273.838 275.498L273.926 275.379C274.77 276.028 275.322 276.985 275.461 278.04C275.6 279.095 275.315 280.162 274.668 281.007L258.403 302.219C258.027 302.708 257.543 303.103 256.989 303.375C256.435 303.646 255.826 303.787 255.21 303.785L255.206 303.79Z" fill="white"/>
</g>
<defs>
<clipPath id="clip0_667_408">
<rect width="357" height="323" fill="white"/>
</clipPath>
</defs>
</svg>
