<?xml version="1.0" encoding="utf-8"?>
<!-- Svg Vector Icons : http://www.onlinewebfonts.com/icon -->
<!DOCTYPE svg PUBLIC "-//W3C//DTD SVG 1.1//EN" "http://www.w3.org/Graphics/SVG/1.1/DTD/svg11.dtd">
<svg version="1.1" xmlns="http://www.w3.org/2000/svg" xmlns:xlink="http://www.w3.org/1999/xlink" x="0px" y="0px" viewBox="0 0 256 256" enable-background="new 0 0 256 256" xml:space="preserve">
<metadata> Svg Vector Icons : http://www.onlinewebfonts.com/icon </metadata>
<g><g><path fill="#333D4B" d="M210.6,71.3l6-6v-5.1c0-11.4-9.2-20.7-20.7-20.7h-5.4l-5.5,5.5L210.6,71.3z M59.5,191.3c-1.7,3.4,1.5,6.8,5.2,5.2l39.6-24l-20.8-20.9L59.5,191.3z M120,178.8l-64.2,31.8c-7.2,3.3-13-3.1-10.4-10.4l31.7-64.3c0.5-2.8,1.6-5.5,3.8-7.6l88.8-88.9H30.7C19.3,39.4,10,48.7,10,60.1v165.3c0,11.4,9.2,20.7,20.7,20.7H196c11.4,0,20.7-9.2,20.7-20.7V86l-89,89C125.5,177.2,122.8,178.2,120,178.8z M91.4,138.7c2.8,2.8,16.2,16.2,25.9,26l83-83l-26.1-25.8L91.4,138.7z M241.7,40.1l-25.9-25.9c-5.7-5.7-15-5.7-20.7,0l-25.3,25.3h20.7l9.7-9.7c2.9-2.9,7.5-2.9,10.4,0l15.6,15.6c2.9,2.9,2.9,7.5,0,10.4l-9.5,9.5V86l25.1-25.1C247.4,55.1,247.4,45.8,241.7,40.1z"/></g></g>
</svg>