<svg id="레이어_1" data-name="레이어 1" xmlns="http://www.w3.org/2000/svg" viewBox="0 0 73.13 22.44"><defs><style>.cls-1{fill:#333d4b;}</style></defs><title>logo-text</title><path class="cls-1" d="M7.82,19.2H4.05c-2.83,0-4.3-1.68-3.6-4.7l2-8.83C3.14,2.74,5,1.39,7.67,1.39h3.77c2.83,0,4.3,1.68,3.6,4.71l-2,8.83C12.35,17.86,10.53,19.2,7.82,19.2ZM4.43,17.5H8.08a2.75,2.75,0,0,0,3-2.45l2.09-9.12c.41-1.7-.34-2.83-2.11-2.83H7.41a2.75,2.75,0,0,0-3,2.45L2.32,14.67C1.91,16.37,2.66,17.5,4.43,17.5ZM8,17.07H4.5c-1.56,0-2.08-.94-1.75-2.4l2.07-9A2.41,2.41,0,0,1,7.48,3.53H11c1.56,0,2.08.94,1.75,2.4l-2.07,9A2.41,2.41,0,0,1,8,17.07ZM6.83,5.23,4.5,15.36H8.66L11,5.23Zm6.48,17.65L18.47.6h2L15.26,22.88Zm2.38,0L20.85.6h1.94L17.63,22.88Z" transform="translate(-0.28 -0.6)"/><path class="cls-1" d="M25.07,4.15l.31-1.36h8.33l-.86,3.67c-.07.36-.19.46-.46.46H26.3l-.92,4A.84.84,0,0,0,26.27,12H35L33.93,13.4H24.81c-1.08,0-1.71-.87-1.42-2.07l1.3-5.64h6.48l.36-1.54ZM38.3,17.81,37.1,23h-2l1.06-4.58H24l.36-1.58H37.55C38.25,16.88,38.47,17.14,38.3,17.81Zm2.52-.6L39.47,23H37.53l1.2-5.23c.22-.89-.17-1.37-1.08-1.37H24.5l.38-1.58H39.07A1.74,1.74,0,0,1,40.82,17.21ZM33.28,8.57h-5l-.38,1.66h7.2l.17-.75h5l-1,4.52H37.39l.69-3.08H35.9l-.53.68h-9c-.48,0-.67-.24-.55-.7l.81-3.55h5.76c.48,0,.75-.24.87-.8l1-4.2H25.48L25.79,1H36.43L35.06,6.87C34.79,8,34.17,8.57,33.28,8.57ZM36,6.05l.33-1.44h5l-1,4.44h-5l.34-1.44h3.19l.36-1.56ZM42.33.6l-.84,3.58h-5l.34-1.44H40L40.48.6ZM39.67,14,42.76.6h1.9L41.56,14Z" transform="translate(-0.28 -0.6)"/><path class="cls-1" d="M53,9.72A8.59,8.59,0,0,0,54,7l1.25-5.41H56.9L55.6,7.27a8.66,8.66,0,0,1-1,2.45,81.75,81.75,0,0,1-4.54,6.92l-1.18-.87A60.94,60.94,0,0,0,53,9.72Zm2.26-.16,2.35,5.92L55.84,18l-1.25-.84c.39-.51.87-1.18,1.25-1.76l-.91-2.52a57,57,0,0,1-3.29,5l-1.22-.91A86.53,86.53,0,0,0,55.22,9.56ZM56,7.37l1.32-5.74h1.61L57.69,7a16.61,16.61,0,0,1-.48,1.8l1,2.86c.48-.75,1-1.47,1.22-2a11.25,11.25,0,0,0,1.06-3l1.17-5.14h1.64l-1.37,6A9.61,9.61,0,0,1,61,10a50.54,50.54,0,0,1-3.14,5L55.48,9A8.89,8.89,0,0,0,56,7.37Zm2,8.28a62.1,62.1,0,0,0,3.46-5.47l2.35,7.3-1.47.76L61,13.85c-1.15,1.75-2.37,3.63-3.5,5.16L56.2,18.2C56.75,17.45,57.35,16.56,58,15.65Zm4.34-8,1.4-6.05h1.7L64.1,7.06a14.57,14.57,0,0,1-.7,2.4l2.31,7.08-1.52.72L61.75,9.7C61.91,9.22,62.18,8.35,62.34,7.61Zm7.06,1L66.11,22.88h-1.7l2.88-12.46H64.65l.41-1.78Zm1.87-8L69.5,8.21H65.15l.41-1.75H68.2L69.57.6ZM66.55,22.88,71.71.6h1.7L68.25,22.88Z" transform="translate(-0.28 -0.6)"/></svg>